<?xml version="1.0" encoding="utf-8"?>
<!-- Generator: Adobe Illustrator 25.4.1, SVG Export Plug-In . SVG Version: 6.00 Build 0)  -->
<svg version="1.1" id="Layer_1" xmlns="http://www.w3.org/2000/svg" xmlns:xlink="http://www.w3.org/1999/xlink" x="0px" y="0px"
	 viewBox="0 0 1226.8 471.5" style="enable-background:new 0 0 1226.8 471.5;" xml:space="preserve">
<style type="text/css">
	.st0{fill:#F71963;}
</style>
<path class="st0" d="M481.6,24.3h-374c-29,0-47.6,30.8-34,56.5l37.4,70.8H43.2c-13.8,0-24.9,11.2-24.9,24.9c0,4,1,8,2.9,11.6
	l120.3,227.8c6.4,12.2,21.5,16.8,33.7,10.4c4.4-2.3,8-6,10.4-10.4l32.7-61.5l41,77.6c14.4,27.3,53.5,27.3,68,0.1L514.7,79.3
	C527.9,54.3,509.8,24.3,481.6,24.3z M313.6,175l-80.8,152.1c-4.3,8.1-14.3,11.2-22.4,6.9c-2.9-1.6-5.3-4-6.9-6.9l-80.1-151.5
	c-4.3-8.1-1.2-18.1,6.9-22.4c2.4-1.3,5-1.9,7.7-1.9h161.3c8.9,0,16.1,7.2,16.1,16.2C315.5,170,314.8,172.6,313.6,175L313.6,175z"/>
<path class="st0" d="M879.4,187.9h-40.9v140.2c0,2.7-2.2,4.8-4.8,4.8h-31.6c-2.7,0-4.8-2.2-4.8-4.8V187.9h-41.1
	c-2.6,0.1-4.7-1.9-4.8-4.4c0,0,0-0.1,0-0.1v-24.8c0-2.6,2.1-4.6,4.7-4.6c0,0,0.1,0,0.1,0h123.2c2.7-0.1,4.9,1.9,5.1,4.6v24.8
	C884.3,186,882,188,879.4,187.9z"/>
<path class="st0" d="M1010.7,331.9c-8.4,1.2-22.6,3.1-48.6,3.1c-31.1,0-58.5-8-58.5-51.8v-80c0-43.8,27.7-51.5,58.8-51.5
	c26,0,39.9,1.9,48.4,3.1c3.4,0.5,4.8,1.7,4.8,4.8v22.4c0,2.7-2.2,4.8-4.8,4.8h-50.8c-11.3,0-15.4,3.9-15.4,16.4v21.9h64.3
	c2.7,0,4.8,2.2,4.8,4.8v22.9c0,2.7-2.2,4.8-4.8,4.8h-64.3v25.5c0,12.5,4.1,16.4,15.4,16.4h50.8c2.7,0,4.8,2.2,4.8,4.8v22.4
	C1015.5,330,1014.1,331.4,1010.7,331.9z"/>
<path class="st0" d="M1192.4,332.9h-38.3c-3.1,0-4.6-1-6.3-3.6l-33.2-52.7l-30.1,51.5c-1.7,2.9-3.4,4.8-6,4.8H1043
	c-2.4,0-3.6-1.5-3.6-3.1c0-0.6,0.2-1.2,0.5-1.7l52.2-87l-52.7-82.6c-0.3-0.4-0.4-0.9-0.5-1.5c0.2-1.8,1.8-3.2,3.6-3.1h38.8
	c2.7,0,4.6,2.4,6,4.6l30.8,48.6l29.8-48.6c1.2-2.2,3.4-4.6,6-4.6h35.6c1.8-0.1,3.4,1.3,3.6,3.1c0,0.5-0.2,1-0.5,1.5l-52.4,83.1
	l54.7,86.5c0.4,0.7,0.7,1.6,0.7,2.4C1195.6,331.9,1194.4,332.9,1192.4,332.9z"/>
<path class="st0" d="M693.6,154.4c-1.8,0-3.3,1.3-3.6,3l-35,129.4c-0.5,2.6-1.2,3.6-3.4,3.6s-2.9-1-3.4-3.6l-35-129.4
	c-0.3-1.7-1.9-3-3.6-3h-34.4c-2.1,0-3.7,1.7-3.7,3.7c0,0.3,0,0.6,0.1,0.8c0,0,42.7,148.4,43.2,149.9c5.7,17.7,19.5,26.1,37.1,26.1
	c16.8,0,31.4-8.9,37.1-26.1c0.7-2,42.4-149.9,42.4-149.9c0.5-2-0.8-4-2.8-4.5c-0.3-0.1-0.5-0.1-0.8-0.1L693.6,154.4z"/>
</svg>
