<?xml version="1.0" encoding="utf-8"?>
<!-- Generator: Adobe Illustrator 25.4.1, SVG Export Plug-In . SVG Version: 6.00 Build 0)  -->
<svg version="1.1" id="Layer_1" xmlns="http://www.w3.org/2000/svg" xmlns:xlink="http://www.w3.org/1999/xlink" x="0px" y="0px"
	 viewBox="0 0 844.7 229.7" style="enable-background:new 0 0 844.7 229.7;" xml:space="preserve">
<style type="text/css">
	.st0{fill:#8A00D3;}
	.st1{fill:#262626;}
</style>
<g>
	<g>
		<path class="st0" d="M311.6,44.5h17.6c1.7,0,2.5,0.8,2.5,2.5v71.3c0,1.7-0.8,2.5-2.5,2.5h-9.7c-1.7,0-2.5-0.8-2.5-2.5V62.1h-0.5
			l-12.1,39.8c-0.5,1.6-1.5,2.4-3,2.4h-10c-1.5,0-2.5-0.8-3-2.4L276.1,62h-0.5v56.4c0,0.9-0.2,1.6-0.5,2c-0.3,0.4-1,0.5-2,0.5h-9.7
			c-1.7,0-2.5-0.8-2.5-2.5V47c0-1.7,0.8-2.5,2.5-2.5h17.7c1.1,0,1.9,0.6,2.3,1.7l12.6,41.9h0.7l12.7-41.9
			C309.6,45.1,310.3,44.5,311.6,44.5z"/>
		<path class="st0" d="M390.5,120.8h-26.2c-6.3,0-11.1-1.7-14.5-5c-3.4-3.3-5.1-8.1-5.1-14.4V79.6c0-6.2,1.7-11,5.1-14.4
			c3.4-3.3,8.2-5,14.5-5h9.4c6.2,0,11.1,1.7,14.5,5c3.4,3.3,5.1,8.1,5.1,14.4v15.1c0,1.7-0.8,2.5-2.5,2.5h-29.8
			c-0.9,0-1.4,0.4-1.4,1.3v2.6c0,2.5,0.5,4.2,1.6,5.3c1.1,1.1,2.9,1.6,5.4,1.6h24c1.7,0,2.5,0.9,2.5,2.6v7.8c0,0.9-0.2,1.5-0.5,1.8
			C392.1,120.6,391.4,120.8,390.5,120.8z M360.9,87.1h16.1c0.9,0,1.3-0.4,1.3-1.3v-5.7c0-2.5-0.5-4.3-1.5-5.3c-1-1-2.8-1.5-5.3-1.5
			h-5c-2.5,0-4.3,0.5-5.3,1.5c-1,1-1.5,2.8-1.5,5.3v5.7C359.6,86.7,360.1,87.1,360.9,87.1z"/>
		<path class="st0" d="M401.7,118.3v-3.9c0-2.7,0.8-5,2.3-6.9l25.2-33.8v-0.5h-23.9c-1.7,0-2.5-0.9-2.5-2.6v-7.8
			c0-1.7,0.8-2.5,2.5-2.5h38.7c1.7,0,2.5,0.8,2.5,2.5v7.1c0,2.5-0.6,4.6-1.9,6.2l-23.3,31.3v0.5h24c1.7,0,2.5,0.9,2.5,2.6v7.8
			c0,1.7-0.8,2.5-2.5,2.5h-41.1C402.5,120.8,401.7,120,401.7,118.3z"/>
		<path class="st0" d="M454.9,118.3v-3.9c0-2.7,0.8-5,2.3-6.9l25.2-33.8v-0.5h-23.9c-1.7,0-2.5-0.9-2.5-2.6v-7.8
			c0-1.7,0.8-2.5,2.5-2.5h38.7c1.7,0,2.5,0.8,2.5,2.5v7.1c0,2.5-0.6,4.6-1.9,6.2l-23.3,31.3v0.5h24c1.7,0,2.5,0.9,2.5,2.6v7.8
			c0,1.7-0.8,2.5-2.5,2.5h-41.1C455.8,120.8,454.9,120,454.9,118.3z"/>
		<path class="st0" d="M532.3,120.8h-2.8c-6.3,0-11.1-1.7-14.5-5c-3.4-3.3-5.1-8.1-5.1-14.4V79.6c0-6.2,1.7-11,5.1-14.4
			c3.4-3.3,8.2-5,14.5-5h27.4c1.7,0,2.6,0.8,2.6,2.5v55.5c0,1.7-0.9,2.5-2.6,2.5h-10c-1.7,0-2.5-0.8-2.5-2.5v-3.9h-0.5
			c-0.9,2.1-2.4,3.7-4.6,4.8C537.1,120.3,534.8,120.8,532.3,120.8z M544.4,98.8V74.7c0-0.9-0.5-1.3-1.4-1.3h-11.2
			c-2.5,0-4.3,0.5-5.3,1.6c-1,1.1-1.5,2.9-1.5,5.4v20.4c0,2.5,0.5,4.3,1.5,5.4c1,1.1,2.8,1.6,5.3,1.6h4.4
			C541.7,107.8,544.4,104.8,544.4,98.8z"/>
		<path class="st0" d="M585.1,120.8H575c-1.7,0-2.5-0.8-2.5-2.5V62.8c0-1.7,0.8-2.5,2.5-2.5h10.1c1.7,0,2.5,0.8,2.5,2.5v3.9h0.5
			c1.7-4.3,5.6-6.4,11.6-6.4h3.8c12.4,0,18.6,6.4,18.6,19.3v38.7c0,1.7-0.9,2.5-2.6,2.5h-10c-1.7,0-2.5-0.8-2.5-2.5v-38
			c0-2.5-0.5-4.3-1.6-5.4c-1.1-1.1-2.9-1.6-5.4-1.6h-4.3c-5.5,0-8.2,3-8.2,9v36C587.6,120,586.8,120.8,585.1,120.8z"/>
		<path class="st0" d="M644.4,140.9h-7.6c-1.6,0-2.4-0.9-2.4-2.6v-8c0-1.7,0.8-2.6,2.4-2.6h2.5c5,0,8.4-0.7,10.1-2.1
			c1.8-1.4,3.1-4.1,4.1-8h-6.3c-1.5,0-2.5-0.8-3-2.5l-13.9-52.3c-0.5-1.7,0.1-2.5,1.8-2.5h10.6c1.6,0,2.6,0.8,3,2.5l10.2,43.8h0.5
			l10.1-43.8c0.3-1.7,1.3-2.5,3-2.5h10c2,0,2.8,0.9,2.4,2.6l-14.5,57.9c-1.7,6.6-4.4,11.5-8.1,15
			C655.6,139.2,650.7,140.9,644.4,140.9z"/>
		<path class="st0" d="M703.1,120.8H693c-1.7,0-2.5-0.8-2.5-2.5V62.8c0-1.7,0.8-2.5,2.5-2.5h10.1c1.7,0,2.5,0.8,2.5,2.5v3.9h0.5
			c1.7-4.3,5.6-6.4,11.6-6.4h3.8c12.4,0,18.6,6.4,18.6,19.3v38.7c0,1.7-0.9,2.5-2.6,2.5h-10c-1.7,0-2.5-0.8-2.5-2.5v-38
			c0-2.5-0.5-4.3-1.6-5.4c-1.1-1.1-2.9-1.6-5.4-1.6h-4.3c-5.5,0-8.2,3-8.2,9v36C705.6,120,704.7,120.8,703.1,120.8z"/>
		<path class="st0" d="M797.2,120.8h-26.2c-6.3,0-11.1-1.7-14.5-5c-3.4-3.3-5.1-8.1-5.1-14.4V79.6c0-6.2,1.7-11,5.1-14.4
			c3.4-3.3,8.2-5,14.5-5h9.4c6.2,0,11.1,1.7,14.5,5c3.4,3.3,5.1,8.1,5.1,14.4v15.1c0,1.7-0.8,2.5-2.5,2.5h-29.8
			c-0.9,0-1.4,0.4-1.4,1.3v2.6c0,2.5,0.5,4.2,1.6,5.3c1.1,1.1,2.9,1.6,5.4,1.6h24c1.7,0,2.5,0.9,2.5,2.6v7.8c0,0.9-0.2,1.5-0.5,1.8
			C798.8,120.6,798.1,120.8,797.2,120.8z M767.6,87.1h16.1c0.9,0,1.3-0.4,1.3-1.3v-5.7c0-2.5-0.5-4.3-1.5-5.3c-1-1-2.8-1.5-5.3-1.5
			h-5c-2.5,0-4.3,0.5-5.3,1.5c-1,1-1.5,2.8-1.5,5.3v5.7C766.3,86.7,766.8,87.1,767.6,87.1z"/>
	</g>
	<g>
		<path class="st1" d="M261.3,187.9v-35.7h21.7v3.5h-17.8V168H280v3.5h-14.7v12.9h17.8v3.5H261.3z"/>
		<path class="st1" d="M297.3,165c-3.8,0-5.6,1.3-5.6,3.9c0,1.2,0.4,2.1,1.3,2.6c0.9,0.5,2.8,1,5.9,1.5c3.1,0.5,5.2,1.3,6.5,2.2
			c1.3,1,1.9,2.8,1.9,5.4s-0.9,4.6-2.6,5.8c-1.7,1.2-4.2,1.9-7.5,1.9c-2.1,0-4.6-0.2-7.5-0.7l-1.5-0.3l0.2-3.4
			c3.9,0.6,6.9,0.9,8.9,0.9c2,0,3.5-0.3,4.6-1c1-0.6,1.6-1.7,1.6-3.2s-0.4-2.5-1.3-3c-0.9-0.5-2.9-1-5.9-1.5c-3-0.5-5.2-1.2-6.5-2.1
			c-1.3-0.9-1.9-2.6-1.9-5.2c0-2.5,0.9-4.4,2.7-5.6c1.8-1.2,4-1.8,6.6-1.8c2.1,0,4.7,0.2,7.9,0.7l1.4,0.3l-0.1,3.3
			C302.5,165.3,299.5,165,297.3,165z"/>
		<path class="st1" d="M322.8,161.5c1.1,0,3.1,0.2,5.8,0.6l1.2,0.2l-0.2,3.1c-2.8-0.3-4.8-0.5-6.1-0.5c-2.9,0-4.9,0.7-6,2.1
			c-1,1.4-1.6,4-1.6,7.7c0,3.8,0.5,6.4,1.5,7.9c1,1.5,3,2.2,6.1,2.2l6.1-0.5l0.2,3.2c-3.2,0.5-5.6,0.7-7.2,0.7c-4,0-6.8-1-8.3-3.1
			c-1.5-2.1-2.3-5.5-2.3-10.5c0-4.9,0.8-8.3,2.5-10.3C316.2,162.5,319,161.5,322.8,161.5z"/>
		<path class="st1" d="M335.7,187.9V162h3.8v3.5c3-2.1,6.1-3.4,9.4-4.1v3.9c-1.4,0.3-3,0.7-4.5,1.3c-1.6,0.6-2.8,1.1-3.6,1.5
			l-1.3,0.7v18.9H335.7z"/>
		<path class="st1" d="M353.6,156.2v-4.5h3.9v4.5H353.6z M353.6,187.9V162h3.9v25.8H353.6z"/>
		<path class="st1" d="M378.2,165.4H370v12.3c0,3,0.2,4.9,0.6,5.8c0.4,0.9,1.5,1.4,3.1,1.4l4.6-0.3l0.3,3.2
			c-2.3,0.4-4.1,0.6-5.3,0.6c-2.7,0-4.5-0.7-5.6-2c-1-1.3-1.5-3.8-1.5-7.5v-13.6h-3.7V162h3.7v-7.9h3.8v7.9h8.2V165.4z"/>
		<path class="st1" d="M392.9,161.5c4,0,6.8,1,8.5,3.1c1.7,2.1,2.5,5.5,2.5,10.2c0,4.7-0.8,8.1-2.4,10.3c-1.6,2.1-4.5,3.2-8.7,3.2
			c-4.2,0-7.1-1.1-8.7-3.2c-1.6-2.1-2.4-5.6-2.4-10.3c0-4.7,0.8-8.1,2.5-10.2C386.1,162.6,388.9,161.5,392.9,161.5z M392.9,185
			c2.9,0,4.8-0.7,5.7-2.2c0.9-1.5,1.3-4.1,1.3-7.9c0-3.8-0.5-6.4-1.5-7.8c-1-1.4-2.8-2.1-5.5-2.1c-2.7,0-4.6,0.7-5.6,2.1
			c-1,1.4-1.5,4-1.5,7.8c0,3.8,0.5,6.4,1.4,7.9C388.1,184.3,390,185,392.9,185z M387.2,154.7l11.1-5.1l1.3,3.3l-11.4,4.4
			L387.2,154.7z"/>
		<path class="st1" d="M410.2,187.9V162h3.8v3.5c3-2.1,6.1-3.4,9.4-4.1v3.9c-1.4,0.3-3,0.7-4.5,1.3c-1.6,0.6-2.8,1.1-3.6,1.5
			l-1.3,0.7v18.9H410.2z"/>
		<path class="st1" d="M428.1,156.2v-4.5h3.9v4.5H428.1z M428.1,187.9V162h3.9v25.8H428.1z"/>
		<path class="st1" d="M438.3,174.9c0-4.7,0.8-8.1,2.5-10.2c1.7-2.1,4.5-3.1,8.5-3.1c4,0,6.8,1,8.5,3.1c1.7,2.1,2.5,5.5,2.5,10.2
			c0,4.7-0.8,8.1-2.4,10.3c-1.6,2.1-4.5,3.2-8.7,3.2c-4.2,0-7.1-1.1-8.7-3.2C439,183,438.3,179.6,438.3,174.9z M442.2,174.8
			c0,3.8,0.5,6.4,1.4,7.9c0.9,1.5,2.8,2.3,5.7,2.3c2.9,0,4.8-0.7,5.7-2.2c0.9-1.5,1.3-4.1,1.3-7.9c0-3.8-0.5-6.4-1.5-7.8
			c-1-1.4-2.8-2.1-5.5-2.1c-2.7,0-4.6,0.7-5.6,2.1C442.7,168.5,442.2,171.1,442.2,174.8z"/>
		<path class="st1" d="M497.8,150.8v37.1H494v-1.8c-2.7,1.5-5.3,2.3-7.8,2.3c-1.4,0-2.6-0.2-3.6-0.5c-1-0.3-2-1-2.9-1.9
			c-1.9-1.9-2.8-5.3-2.8-10.3c0-5,0.8-8.6,2.5-10.8c1.7-2.2,4.4-3.3,8.3-3.3c2,0,4.1,0.2,6.3,0.7v-11.4H497.8z M484.4,184.5
			c0.6,0.2,1.4,0.4,2.4,0.4c1,0,2.1-0.2,3.3-0.5c1.2-0.3,2.2-0.6,2.9-1l1-0.5v-17.5c-2.2-0.4-4.3-0.6-6.1-0.6
			c-2.6,0-4.4,0.8-5.5,2.5c-1,1.7-1.5,4.3-1.5,7.8c0,4,0.6,6.7,1.8,8.1C483.2,183.9,483.8,184.3,484.4,184.5z"/>
		<path class="st1" d="M522.8,184.7l1.5-0.2l0.1,3c-3.9,0.5-7.3,0.8-10.1,0.8c-3.7,0-6.3-1.1-7.9-3.2c-1.5-2.1-2.3-5.5-2.3-10
			c0-9,3.6-13.6,10.8-13.6c3.5,0,6.1,1,7.8,2.9c1.7,1.9,2.6,5,2.6,9.2l-0.2,2.9h-17c0,2.9,0.5,5,1.5,6.3c1,1.4,2.8,2.1,5.4,2.1
			C517.6,185,520.2,184.9,522.8,184.7z M521.5,173.4c0-3.2-0.5-5.4-1.5-6.7c-1-1.3-2.7-2-5-2c-2.3,0-4,0.7-5.2,2.1
			c-1.2,1.4-1.7,3.6-1.8,6.6H521.5z"/>
		<path class="st1" d="M556.1,187.9h-12.7v-35.7h12.7c5.8,0,9.7,2.3,11.6,6.9c1.1,2.6,1.7,6.1,1.7,10.4c0,9-2.2,14.6-6.7,17
			C560.9,187.4,558.7,187.9,556.1,187.9z M565.3,169.5c0-6.8-1.5-11.1-4.6-12.8c-1.2-0.7-2.8-1-4.5-1h-8.8v28.7h8.8
			C562.2,184.3,565.3,179.4,565.3,169.5z"/>
		<path class="st1" d="M593.6,184.7l1.5-0.2l0.1,3c-3.9,0.5-7.3,0.8-10.1,0.8c-3.7,0-6.3-1.1-7.9-3.2c-1.5-2.1-2.3-5.5-2.3-10
			c0-9,3.6-13.6,10.8-13.6c3.5,0,6.1,1,7.8,2.9c1.7,1.9,2.6,5,2.6,9.2l-0.2,2.9h-17c0,2.9,0.5,5,1.5,6.3c1,1.4,2.8,2.1,5.4,2.1
			C588.3,185,590.9,184.9,593.6,184.7z M592.2,173.4c0-3.2-0.5-5.4-1.5-6.7c-1-1.3-2.7-2-5-2c-2.3,0-4,0.7-5.2,2.1
			c-1.2,1.4-1.7,3.6-1.8,6.6H592.2z"/>
		<path class="st1" d="M610.2,165c-3.8,0-5.6,1.3-5.6,3.9c0,1.2,0.4,2.1,1.3,2.6c0.9,0.5,2.8,1,5.9,1.5c3.1,0.5,5.2,1.3,6.5,2.2
			c1.3,1,1.9,2.8,1.9,5.4s-0.9,4.6-2.6,5.8c-1.7,1.2-4.2,1.9-7.5,1.9c-2.1,0-4.6-0.2-7.5-0.7l-1.5-0.3l0.2-3.4
			c3.9,0.6,6.9,0.9,8.9,0.9c2,0,3.5-0.3,4.6-1c1-0.6,1.6-1.7,1.6-3.2s-0.4-2.5-1.3-3c-0.9-0.5-2.9-1-5.9-1.5c-3-0.5-5.2-1.2-6.5-2.1
			c-1.3-0.9-1.9-2.6-1.9-5.2c0-2.5,0.9-4.4,2.7-5.6c1.8-1.2,4-1.8,6.6-1.8c2.1,0,4.7,0.2,7.9,0.7l1.4,0.3l-0.1,3.3
			C615.4,165.3,612.4,165,610.2,165z"/>
		<path class="st1" d="M626.1,156.2v-4.5h3.9v4.5H626.1z M626.1,187.9V162h3.9v25.8H626.1z"/>
		<path class="st1" d="M647.3,200c-4.1,0-7-0.6-8.6-1.7c-1.6-1.1-2.5-3.2-2.5-6.1c0-1.4,0.3-2.6,0.9-3.4c0.6-0.9,1.7-1.9,3.1-3
			c-1-0.7-1.4-1.8-1.4-3.6c0-0.6,0.4-1.7,1.3-3.3l0.5-0.8c-2.7-1.2-4.1-3.8-4.1-7.8c0-5.9,3.2-8.8,9.7-8.8c1.7,0,3.2,0.2,4.6,0.5
			l0.8,0.2l7.6-0.2v3.3l-4.9-0.1c1.1,1.1,1.7,2.9,1.7,5.2c0,3.2-0.8,5.5-2.4,6.8c-1.6,1.3-4.1,1.9-7.6,1.9c-0.9,0-1.8-0.1-2.5-0.2
			c-0.6,1.5-0.9,2.5-0.9,2.9c0,1.1,0.3,1.7,1,2c0.7,0.3,2.6,0.4,5.9,0.4s5.7,0.5,7.1,1.5c1.4,1,2.2,3,2.2,6
			C658.8,197.2,655,200,647.3,200z M640.1,191.9c0,1.8,0.5,3.1,1.5,3.8c1,0.7,2.9,1.1,5.6,1.1c2.7,0,4.7-0.4,5.9-1.1
			c1.2-0.8,1.8-2,1.8-3.8c0-1.8-0.4-2.9-1.3-3.4c-0.9-0.5-2.5-0.8-5.1-0.8l-5.6-0.3c-1.1,0.8-1.9,1.5-2.3,2.2
			C640.3,190.1,640.1,190.9,640.1,191.9z M640.4,170.4c0,2,0.5,3.5,1.4,4.3c0.9,0.9,2.4,1.3,4.5,1.3c2.1,0,3.6-0.4,4.5-1.3
			c0.9-0.9,1.3-2.3,1.3-4.4c0-2-0.4-3.5-1.3-4.4c-0.9-0.9-2.4-1.3-4.5-1.3c-2.1,0-3.6,0.4-4.5,1.3
			C640.9,166.9,640.4,168.3,640.4,170.4z"/>
		<path class="st1" d="M667.8,187.9h-3.9V162h3.8v1.8c2.8-1.5,5.5-2.3,8-2.3c3.4,0,5.8,0.9,6.9,2.8c1.2,1.9,1.8,5.2,1.8,9.9v13.6
			h-3.8v-13.5c0-3.6-0.4-6-1.1-7.4c-0.7-1.3-2.2-2-4.5-2c-1.1,0-2.3,0.2-3.5,0.5c-1.2,0.3-2.2,0.6-2.8,1l-1,0.5V187.9z"/>
	</g>
	<polygon class="st0" points="177.5,25.6 44.8,25.6 44.8,13 177.4,13 	"/>
	<polygon class="st0" points="229.6,216.6 96.6,216.6 96.6,204 229.5,204 	"/>
	<g>
		<path class="st1" d="M58.7,191.1c-1.7,0-3.4-0.3-5-0.9c-5.5-2-9-7.1-9-12.8v-123c0-7.5,6.3-13.7,13.9-13.7h105.1
			c5.6,0,10.4,3.1,12.7,8.1c2.2,4.8,1.4,10.4-2,14.4L125.9,120l-18.2,0l5.1-6.3l50.5-59.1L58.7,54.7l0.1,122.1l40.5-47.1h18.4
			l-48.3,56.5C66.7,189.3,62.8,191.1,58.7,191.1z"/>
		<path class="st1" d="M215.7,191.1H110.6c-5.6,0-10.4-3.1-12.7-8.1c-2.2-4.8-1.4-10.4,2-14.4l48.2-56.4h18.4l-55.4,64.9l104.6-0.1
			L215.6,55l-39.9,46.4h-18.5L205,45.6c3.8-4.4,10.1-6.1,15.6-4c5.5,2,9,7,9,12.8v123C229.6,185,223.4,191.1,215.7,191.1z"/>
	</g>
</g>
</svg>
